<svg xmlns="http://www.w3.org/2000/svg" width="279.805" height="99.045" viewBox="0 0 279.805 99.045"><rect width="279.805" height="99.045" x="0" y="0" fill="#0f1c93"/><g fill="#fff" color="#fff" transform="translate(192.761 12) scale(2.274082)"><svg width="33" height="33" x="0" y="0" viewBox="0 0 33 33"><path d="M30.664,4.637H2.336C1.322,4.637,0.5,5.459,0.5,6.473v20.054c0,1.014,0.822,1.836,1.836,1.836h28.328 c1.014,0,1.836-0.822,1.836-1.836V6.473C32.5,5.459,31.678,4.637,30.664,4.637z M5.549,25.411H2.643v-2.524h2.906V25.411z M5.549,20.312H2.643v-2.524h2.906V20.312z M5.549,15.212H2.643v-2.524h2.906V15.212z M5.549,10.113H2.643V7.589h2.906V10.113z M25.422,25.411H7.578V7.589h17.844V25.411z M30.357,25.411h-2.906v-2.524h2.906V25.411z M30.357,20.312h-2.906v-2.524h2.906V20.312 z M30.357,15.212h-2.906v-2.524h2.906V15.212z M30.357,10.113h-2.906V7.589h2.906V10.113z"/><polygon points="21.752 16.499 17.418 13.437 13.084 10.375 13.084 16.499 13.084 22.625 17.418 19.562"/></svg></g><path fill="#fff" fill-rule="nonzero" d="M12.40 28Q8.68 28 5.86 26.20Q3.04 24.40 1.52 21.30Q0 18.20 0 14.40L0 14.40Q0 10.48 1.66 7.16Q3.32 3.84 6.18 1.92Q9.04 0 12.40 0L12.40 0Q15.60 0 18.02 0.90Q20.44 1.80 21.60 3.20L21.60 3.20Q22.28 4.04 22.44 5.42Q22.60 6.80 22.60 9.20L22.60 9.20L21.80 9.20Q21.04 5.32 19 3.46Q16.96 1.60 13.60 1.60L13.60 1.60Q9.28 1.60 6.64 4.64Q4 7.68 4 14.40L4 14.40Q4 17.56 5.02 20.28Q6.04 23 8.20 24.70Q10.36 26.40 13.60 26.40L13.60 26.40Q16.52 26.40 18.70 25Q20.88 23.60 22.60 20.80L22.60 20.80L23.40 21.40Q21.56 25 18.86 26.50Q16.16 28 12.40 28L12.40 28ZM46.68 27.60Q44.56 27.60 42.98 26.34Q41.40 25.08 39.48 21.80L39.48 21.80L35.48 15.00L32.68 15.00L32.68 27.20L29.08 27.20L29.08 5.60Q29.08 3.56 28.52 2.58Q27.96 1.60 26.28 1.60L26.28 1.60L25.48 1.60L25.48 0.80L35.88 0.80Q39.68 0.80 42.78 2.30Q45.88 3.80 45.88 8L45.88 8Q45.88 13.32 39.48 14.80L39.48 14.80L43.68 21.80Q45.16 24.28 46.34 25.26Q47.52 26.24 49.08 26.40L49.08 26.40L49.08 27.20Q48.72 27.36 48.06 27.48Q47.40 27.60 46.68 27.60L46.68 27.60ZM35.68 13.60Q36.92 13.60 38.38 13.00Q39.84 12.40 40.86 11.12Q41.88 9.84 41.88 8L41.88 8Q41.88 6.04 40.86 4.74Q39.84 3.44 38.38 2.82Q36.92 2.20 35.68 2.20L35.68 2.20Q34.28 2.20 32.68 2.60L32.68 2.60L32.68 13.20Q34.28 13.60 35.68 13.60L35.68 13.60ZM52.88 27.20L52.88 5.60Q52.88 3.56 52.32 2.58Q51.76 1.60 50.08 1.60L50.08 1.60L49.28 1.60L49.28 0.80L66.32 0.80Q69.72 0.80 69.72 4L69.72 4L69.72 7L68.92 7Q68.92 2.40 63.92 2.40L63.92 2.40L56.48 2.40L56.48 12.80L67.28 12.80L67.28 14.40L56.48 14.40L56.48 25.60L63.48 25.60Q66.24 25.60 67.80 24.60Q69.36 23.60 70.28 21.20L70.28 21.20L71.08 21.40L69.68 25.20Q68.96 27.20 66.68 27.20L66.68 27.20L52.88 27.20ZM76.48 27.20L76.48 5.60Q76.48 3.56 75.92 2.58Q75.36 1.60 73.68 1.60L73.68 1.60L72.88 1.60L72.88 0.80L89.92 0.80Q93.32 0.80 93.32 4L93.32 4L93.32 7L92.52 7Q92.52 2.40 87.52 2.40L87.52 2.40L80.08 2.40L80.08 12.80L90.88 12.80L90.88 14.40L80.08 14.40L80.08 25.60L87.08 25.60Q89.84 25.60 91.40 24.60Q92.96 23.60 93.88 21.20L93.88 21.20L94.68 21.40L93.28 25.20Q92.56 27.20 90.28 27.20L90.28 27.20L76.48 27.20ZM100.08 27.20L100.08 5.60Q100.08 3.56 99.52 2.58Q98.96 1.60 97.28 1.60L97.28 1.60L96.48 1.60L96.48 0.80L106.88 0.80Q110.72 0.80 113.80 2.44Q116.88 4.08 116.88 8.80L116.88 8.80Q116.88 11.92 115.28 13.60Q113.68 15.28 111.70 15.84Q109.72 16.40 108.08 16.40L108.08 16.40L103.68 16.40L103.68 27.20L100.08 27.20ZM106.68 15.00Q107.96 15.00 109.40 14.34Q110.84 13.68 111.86 12.24Q112.88 10.80 112.88 8.60L112.88 8.60Q112.88 6.40 111.86 4.96Q110.84 3.52 109.40 2.86Q107.96 2.20 106.68 2.20L106.68 2.20Q105.28 2.20 103.68 2.60L103.68 2.60L103.68 14.60Q105.28 15.00 106.68 15.00L106.68 15.00ZM122.16 27.20L122.16 5.60Q122.16 3.56 121.60 2.58Q121.04 1.60 119.36 1.60L119.36 1.60L118.56 1.60L118.56 0.80L135.60 0.80Q139 0.80 139 4L139 4L139 7L138.20 7Q138.20 2.40 133.20 2.40L133.20 2.40L125.76 2.40L125.76 12.80L136.56 12.80L136.56 14.40L125.76 14.40L125.76 25.60L132.76 25.60Q135.52 25.60 137.08 24.60Q138.64 23.60 139.56 21.20L139.56 21.20L140.36 21.40L138.96 25.20Q138.24 27.20 135.96 27.20L135.96 27.20L122.16 27.20ZM163.36 27.60Q161.24 27.60 159.66 26.34Q158.08 25.08 156.16 21.80L156.16 21.80L152.16 15.00L149.36 15.00L149.36 27.20L145.76 27.20L145.76 5.60Q145.76 3.56 145.20 2.58Q144.64 1.60 142.96 1.60L142.96 1.60L142.16 1.60L142.16 0.80L152.56 0.80Q156.36 0.80 159.46 2.30Q162.56 3.80 162.56 8L162.56 8Q162.56 13.32 156.16 14.80L156.16 14.80L160.36 21.80Q161.84 24.28 163.02 25.26Q164.20 26.24 165.76 26.40L165.76 26.40L165.76 27.20Q165.40 27.36 164.74 27.48Q164.08 27.60 163.36 27.60L163.36 27.60ZM152.36 13.60Q153.60 13.60 155.06 13.00Q156.52 12.40 157.54 11.12Q158.56 9.84 158.56 8L158.56 8Q158.56 6.04 157.54 4.74Q156.52 3.44 155.06 2.82Q153.60 2.20 152.36 2.20L152.36 2.20Q150.96 2.20 149.36 2.60L149.36 2.60L149.36 13.20Q150.96 13.60 152.36 13.60L152.36 13.60Z" transform="translate(12 12) scale(1)"/><path fill="#fff" fill-rule="nonzero" d="M24 26.60Q22.08 26.60 20.20 25.54Q18.32 24.48 17.20 21.40L17.20 21.40L16.20 18.80L5 18.80L1.80 26.40L0 26.40L11.20 0L12.40 0L21.20 21.40Q22.20 23.72 23.08 24.58Q23.96 25.44 25.60 25.60L25.60 25.60L25.60 26.40Q24.88 26.60 24 26.60L24 26.60ZM10.60 5.60L5.60 17.20L15.40 17.20L10.60 5.60ZM47.72 26.80L30.52 5.40L30.52 26.40L28.92 26.40L28.92 4.80Q28.92 2.88 28.10 1.84Q27.28 0.80 25.32 0.80L25.32 0.80L24.92 0.80L24.92 0L27.52 0Q29.36 0 30.64 0.60Q31.92 1.20 32.92 2.40L32.92 2.40L46.92 19.80L46.92 0L48.52 0L48.52 26.80L47.72 26.80ZM59.08 26.40Q57.60 26.40 56.86 26.02Q56.12 25.64 55.80 24.64Q55.48 23.64 55.48 21.60L55.48 21.60L55.48 0L59.08 0L59.08 21.60Q59.08 23.64 59.64 24.62Q60.20 25.60 61.88 25.60L61.88 25.60L62.68 25.60L62.68 26.40L59.08 26.40ZM96.96 28.20Q94.08 28.20 92.48 27.32Q90.88 26.44 90.22 24.58Q89.56 22.72 89.56 19.60L89.56 19.60L89.56 4.20L79.56 26.40L78.76 26.40L68.36 3.80L68.36 26.40L66.76 26.40L66.76 0L70.56 0L80.16 20.80L89.56 0L93.16 0L93.16 19.60Q93.16 23.32 94.10 25.36Q95.04 27.40 96.96 27.40L96.96 27.40L96.96 28.20ZM101.52 26.40L101.52 4.80Q101.52 2.76 100.96 1.78Q100.40 0.80 98.72 0.80L98.72 0.80L97.92 0.80L97.92 0L114.96 0Q118.36 0 118.36 3.20L118.36 3.20L118.36 6.20L117.56 6.20Q117.56 1.60 112.56 1.60L112.56 1.60L105.12 1.60L105.12 12.00L115.92 12.00L115.92 13.60L105.12 13.60L105.12 24.80L112.12 24.80Q114.88 24.80 116.44 23.80Q118.00 22.80 118.92 20.40L118.92 20.40L119.72 20.60L118.32 24.40Q117.60 26.40 115.32 26.40L115.32 26.40L101.52 26.40Z" transform="translate(12 48) scale(1.385)"/></svg>